<svg xmlns="http://www.w3.org/2000/svg" xmlns:xlink="http://www.w3.org/1999/xlink" width="21" height="22" version="1.1" viewBox="0 0 21 22"><title>ICONS-26/notification</title><desc>Created with Sketch.</desc><g id="User-Flow" fill="none" fill-rule="evenodd" stroke="none" stroke-width="1"><g id="Marketplace---9-one-card---Variation-with-background" transform="translate(-1084.000000, -29.000000)"><g id="ICONS-26/notification" transform="translate(1082.000000, 28.000000)"><rect id="Rectangle-5" width="25" height="25" x="0" y="0"/><g id="bell-53" stroke="#FFF" stroke-linecap="square" stroke-width="1.6" transform="translate(3.846154, 1.923077)"><path id="Shape" d="M11.5384615,17.3076923 C11.5384615,18.9423077 10.2884615,20.1923077 8.65384615,20.1923077 C7.01923077,20.1923077 5.76923077,18.9423077 5.76923077,17.3076923"/><path id="Shape" d="M15.3846154,10.3238866 C15.3846154,8.17307692 15.3846154,6.02226721 15.3846154,6.02226721 C15.3846154,2.66700405 12.4038462,0 8.65384615,0 C4.90384615,0 1.92307692,2.66700405 1.92307692,6.02226721 C1.92307692,6.02226721 1.92307692,8.17307692 1.92307692,10.3238866 C1.92307692,13.7651822 0,16.3461538 0,16.3461538 L17.3076923,16.3461538 C17.3076923,16.3461538 15.3846154,13.7651822 15.3846154,10.3238866 Z"/></g></g></g></g></svg>